<svg id="kity_svg_6" xmlns="http://www.w3.org/2000/svg" xmlns:xlink="http://www.w3.org/1999/xlink" version="1.1" width="1126" height="803" style="background: rgb(251, 251, 251); visibility: visible;" viewBox="0 0 1126 803"><defs id="kity_defs_7"><linearGradient id="kity_linearGradient_17" x1="0" y1="0" x2="0" y2="1"><stop id="kity_stop_18" offset="0" stop-color="rgb(255, 255, 255)"></stop><stop id="kity_stop_19" offset="1" stop-color="rgb(204, 204, 204)"></stop></linearGradient><marker id="kity_marker_2" orient="auto" refX="6" refY="0" viewBox="-7 -7 14 14" markerWidth="7" markerHeight="7" markerUnits="userSpaceOnUse"><path id="kity_path_3" fill="rgb(115, 161, 191)" stroke="none" d="M6,0A6,6,0,1,1,-6,0A6,6,0,1,1,6,0"></path></marker></defs><g id="kity_g_8"><g id="minder1" text-rendering="geometricPrecision"><g id="minder_connect_group1"><path id="kity_path_31" fill="none" stroke="rgb(115, 161, 191)" stroke-width="1" d="M518.5000109598041,431.5000054612756A174,219,0,0,1,692.5000109598041,212.50000546127558"></path><path id="kity_path_39" fill="none" stroke="rgb(115, 161, 191)" stroke-width="1" d="M518.5000109598041,431.5000054612756A174,0,0,0,1,344.50001095980406,431.5000054612756"></path><path id="kity_path_47" fill="none" stroke="rgb(115, 161, 191)" stroke-width="1" d="M518.5000109598041,431.5000054612756A174,220,0,0,0,692.5000109598041,651.5000054612756"></path><path id="kity_path_55" fill="none" stroke="rgb(115, 161, 191)" stroke-width="1" d="M762.5000109598041,212.50000546127558C777.5000109598041,212.50000546127558,777.5000109598041,44.50000546127558,792.5000109598041,44.50000546127558L891.5000109598041,44.50000546127558"></path><path id="kity_path_63" fill="none" stroke="rgb(115, 161, 191)" stroke-width="1" d="M762.5000109598041,212.50000546127558C777.5000109598041,212.50000546127558,777.5000109598041,148.50000546127558,792.5000109598041,148.50000546127558L870.5000109598041,148.50000546127558"></path><path id="kity_path_71" fill="none" stroke="rgb(115, 161, 191)" stroke-width="1" d="M870.5000109598041,148.50000546127558C885.5000109598041,148.50000546127558,885.5000109598041,96.50000546127558,900.5000109598041,96.50000546127558L958.5000109598041,96.50000546127558"></path><path id="kity_path_79" fill="none" stroke="rgb(115, 161, 191)" stroke-width="1" d="M870.5000109598041,148.50000546127558C885.5000109598041,148.50000546127558,885.5000109598041,148.50000546127558,900.5000109598041,148.50000546127558L987.5000109598041,148.50000546127558"></path><path id="kity_path_87" fill="none" stroke="rgb(115, 161, 191)" stroke-width="1" d="M762.5000109598041,212.50000546127558C777.5000109598041,212.50000546127558,777.5000109598041,252.50000546127558,792.5000109598041,252.50000546127558L925.5000109598041,252.50000546127558"></path><path id="kity_path_95" fill="none" stroke="rgb(115, 161, 191)" stroke-width="1" d="M762.5000109598041,212.50000546127558C777.5000109598041,212.50000546127558,777.5000109598041,304.5000054612756,792.5000109598041,304.5000054612756L895.5000109598041,304.5000054612756"></path><path id="kity_path_103" fill="none" stroke="rgb(115, 161, 191)" stroke-width="1" d="M762.5000109598041,212.50000546127558C777.5000109598041,212.50000546127558,777.5000109598041,356.5000054612756,792.5000109598041,356.5000054612756L861.5000109598041,356.5000054612756"></path><path id="kity_path_111" fill="none" stroke="rgb(115, 161, 191)" stroke-width="1" d="M762.5000109598041,212.50000546127558C777.5000109598041,212.50000546127558,777.5000109598041,408.5000054612756,792.5000109598041,408.5000054612756L885.5000109598041,408.5000054612756"></path><path id="kity_path_119" fill="none" stroke="rgb(115, 161, 191)" stroke-width="1" d="M762.5000109598041,651.5000054612756C777.5000109598041,651.5000054612756,777.5000109598041,574.5000054612756,792.5000109598041,574.5000054612756L846.5000109598041,574.5000054612756"></path><path id="kity_path_127" fill="none" stroke="rgb(115, 161, 191)" stroke-width="1" d="M762.5000109598041,651.5000054612756C777.5000109598041,651.5000054612756,777.5000109598041,756.5000054612756,792.5000109598041,756.5000054612756L858.5000109598041,756.5000054612756"></path><path id="kity_path_135" fill="none" stroke="rgb(115, 161, 191)" stroke-width="1" d="M846.5000109598041,574.5000054612756C861.5000109598041,574.5000054612756,861.5000109598041,522.5000054612756,876.5000109598041,522.5000054612756L1059.500010959804,522.5000054612756"></path><path id="kity_path_145" fill="none" stroke="rgb(115, 161, 191)" stroke-width="1" d="M846.5000109598041,574.5000054612756C861.5000109598041,574.5000054612756,861.5000109598041,574.5000054612756,876.5000109598041,574.5000054612756L923.5000109598041,574.5000054612756"></path><path id="kity_path_202" fill="none" stroke="rgb(115, 161, 191)" stroke-width="1" d="M846.5000109598041,574.5000054612756C861.5000109598041,574.5000054612756,861.5000109598041,470.5000054612756,876.5000109598041,470.5000054612756L990.5000109598041,470.5000054612756"></path><path id="kity_path_211" fill="none" stroke="rgb(115, 161, 191)" stroke-width="1" d="M846.5000109598041,574.5000054612756C861.5000109598041,574.5000054612756,861.5000109598041,626.5000054612756,876.5000109598041,626.5000054612756L991.5000109598041,626.5000054612756"></path><path id="kity_path_219" fill="none" stroke="rgb(115, 161, 191)" stroke-width="1" d="M958.5000109598041,96.50000546127558C973.5000109598041,96.50000546127558,973.5000109598041,96.50000546127558,988.5000109598041,96.50000546127558L1106.500010959804,96.50000546127558"></path><path id="kity_path_227" fill="none" stroke="rgb(115, 161, 191)" stroke-width="1" d="M846.5000109598041,574.5000054612756C861.5000109598041,574.5000054612756,861.5000109598041,678.5000054612756,876.5000109598041,678.5000054612756L1005.5000109598041,678.5000054612756"></path><path id="kity_path_235" fill="none" stroke="rgb(115, 161, 191)" stroke-width="1" d="M870.5000109598041,148.50000546127558C885.5000109598041,148.50000546127558,885.5000109598041,200.50000546127558,900.5000109598041,200.50000546127558L1006.5000109598041,200.50000546127558"></path><path id="kity_path_243" fill="none" stroke="rgb(115, 161, 191)" stroke-width="1" d="M858.5000109598041,756.5000054612756C873.5000109598041,756.5000054612756,873.5000109598041,782.5000054612756,888.5000109598041,782.5000054612756L946.5000109598041,782.5000054612756"></path><path id="kity_path_259" fill="none" stroke="rgb(115, 161, 191)" stroke-width="1" d="M858.5000109598041,756.5000054612756C873.5000109598041,756.5000054612756,873.5000109598041,730.5000054612756,888.5000109598041,730.5000054612756L997.5000109598041,730.5000054612756"></path><path id="kity_path_266" fill="none" stroke="rgb(115, 161, 191)" stroke-width="1" d="M946.5000109598041,782.5000054612756C961.5000109598041,782.5000054612756,961.5000109598041,782.5000054612756,976.5000109598041,782.5000054612756L1095.500010959804,782.5000054612756"></path><path id="kity_path_276" fill="none" stroke="rgb(115, 161, 191)" stroke-width="1" d="M274.50001095980406,431.5000054612756C259.50001095980406,431.5000054612756,259.50001095980406,315.5000054612756,244.50001095980406,315.5000054612756L91.50001095980406,315.5000054612756"></path><path id="kity_path_284" fill="none" stroke="rgb(115, 161, 191)" stroke-width="1" d="M274.50001095980406,431.5000054612756C259.50001095980406,431.5000054612756,259.50001095980406,367.5000054612756,244.50001095980406,367.5000054612756L65.50001095980406,367.5000054612756"></path><path id="kity_path_292" fill="none" stroke="rgb(115, 161, 191)" stroke-width="1" d="M274.50001095980406,431.5000054612756C259.50001095980406,431.5000054612756,259.50001095980406,471.5000054612756,244.50001095980406,471.5000054612756L20.500010959804058,471.5000054612756"></path><path id="kity_path_300" fill="none" stroke="rgb(115, 161, 191)" stroke-width="1" d="M274.50001095980406,431.5000054612756C259.50001095980406,431.5000054612756,259.50001095980406,523.5000054612756,244.50001095980406,523.5000054612756L81.50001095980406,523.5000054612756"></path><path id="kity_path_316" fill="none" stroke="rgb(115, 161, 191)" stroke-width="1" d="M274.50001095980406,431.5000054612756C259.50001095980406,431.5000054612756,259.50001095980406,575.5000054612756,244.50001095980406,575.5000054612756L64.50001095980406,575.5000054612756"></path><path id="kity_path_356" fill="none" stroke="rgb(115, 161, 191)" stroke-width="1" d="M274.50001095980406,431.5000054612756C259.50001095980406,431.5000054612756,259.50001095980406,419.5000054612756,244.50001095980406,419.5000054612756L34.50001095980406,419.5000054612756"></path></g><g id="minder_node1"><path id="node_outline1" fill="rgb(115, 161, 191)" stroke="rgb(115, 161, 191)" d="M467.50001095980406,411.5000054612756h102a5,5,0,0,1,5,5v30a5,5,0,0,1,-5,5h-102a5,5,0,0,1,-5,-5v-30a5,5,0,0,1,5,-5z" stroke-width="3"></path><g id="node_text1" fill="white"><text id="kity_text_22" text-rendering="inherit" font-size="16" dy=".8em" y="421.1000054255128" x="486.50001095980406">并发编程</text></g></g><g id="kity_g_14" display="none"><path id="kity_path_15" fill="rgba(0, 92, 153, 0.5)" stroke="none" d="M20.500010959804058,395.5000054612756h214v15h-214z"></path><path id="kity_path_16" fill="none" stroke="rgb(0, 76, 128)" d="M20.500010959804058,395.5000054612756L234.50001095980406,395.5000054612756" stroke-width="1"></path></g><g id="minder_node2"><g id="node_expander1" style="cursor: pointer;"><path id="kity_path_36" fill="white" stroke="gray" d="M693.5000139549375,212.50000219792128A6,6,0,1,1,681.5000139549375,212.50000219792128A6,6,0,1,1,693.5000139549375,212.50000219792128"></path><path id="kity_path_37" fill="none" stroke="gray" d="M683.0000139549375,212.50000219792128L692.0000139549375,212.50000219792128"></path></g><path id="node_outline2" fill="rgb(238, 243, 246)" stroke="rgb(115, 161, 191)" d="M697.5000143572688,199.50000219792128h62a3,3,0,0,1,3,3v20a3,3,0,0,1,-3,3h-62a3,3,0,0,1,-3,-3v-20a3,3,0,0,1,3,-3z" stroke-width="1"></path><g id="node_text2" fill="black"><text id="kity_text_33" text-rendering="inherit" font-size="14" dy=".8em" y="203.40000216662884" x="714.5000143572688">协作</text></g></g><g id="minder_node3"><g id="node_expander2" style="cursor: pointer;"><path id="kity_path_44" fill="white" stroke="gray" d="M355.500008918345,431.5000054612756A6,6,0,1,1,343.500008918345,431.5000054612756A6,6,0,1,1,355.500008918345,431.5000054612756"></path><path id="kity_path_45" fill="none" stroke="gray" d="M345.000008918345,431.5000054612756L354.000008918345,431.5000054612756"></path></g><path id="node_outline3" fill="rgb(238, 243, 246)" stroke="rgb(115, 161, 191)" d="M277.5000080987811,418.5000054612756h62a3,3,0,0,1,3,3v20a3,3,0,0,1,-3,3h-62a3,3,0,0,1,-3,-3v-20a3,3,0,0,1,3,-3z" stroke-width="1"></path><g id="node_text3" fill="black"><text id="kity_text_41" text-rendering="inherit" font-size="14" dy=".8em" y="422.40000542998314" x="294.5000080987811">分工</text></g></g><g id="minder_node4"><g id="node_expander3" style="cursor: pointer;"><path id="kity_path_52" fill="white" stroke="gray" d="M693.5000139549375,651.500008739531A6,6,0,1,1,681.5000139549375,651.500008739531A6,6,0,1,1,693.5000139549375,651.500008739531"></path><path id="kity_path_53" fill="none" stroke="gray" d="M683.0000139549375,651.500008739531L692.0000139549375,651.500008739531"></path></g><path id="node_outline4" fill="rgb(238, 243, 246)" stroke="rgb(115, 161, 191)" d="M697.5000143572688,638.500008739531h62a3,3,0,0,1,3,3v20a3,3,0,0,1,-3,3h-62a3,3,0,0,1,-3,-3v-20a3,3,0,0,1,3,-3z" stroke-width="1"></path><g id="node_text4" fill="black"><text id="kity_text_49" text-rendering="inherit" font-size="14" dy=".8em" y="642.4000087082386" x="714.5000143572688">互斥</text></g></g><g id="minder_node5"><g id="node_expander4" style="cursor: pointer;" display="none"><path id="kity_path_60" fill="white" stroke="gray" d="M802.500015579164,30.49999948590994A6,6,0,1,1,790.500015579164,30.49999948590994A6,6,0,1,1,802.500015579164,30.49999948590994"></path><path id="kity_path_61" fill="none" stroke="gray"></path></g><path id="node_outline5" fill="none" stroke="none" d="M807.5000158175826,19.49999948590994h79a5,5,0,0,1,5,5v12a5,5,0,0,1,-5,5h-79a5,5,0,0,1,-5,-5v-12a5,5,0,0,1,5,-5z" stroke-width="3"></path><g id="node_text5" fill="black"><text id="kity_text_57" text-rendering="inherit" font-size="12" dy=".8em" y="22.69999945908785" x="812.5000158175826">Semaphore</text></g></g><g id="minder_node6"><g id="node_expander5" style="cursor: pointer;"><path id="kity_path_68" fill="white" stroke="gray" d="M802.500015579164,134.5000010356307A6,6,0,1,1,790.500015579164,134.5000010356307A6,6,0,1,1,802.500015579164,134.5000010356307"></path><path id="kity_path_69" fill="none" stroke="gray" d="M792.000015579164,134.5000010356307L801.000015579164,134.5000010356307"></path></g><path id="node_outline6" fill="none" stroke="none" d="M807.5000158175826,123.5000010356307h58a5,5,0,0,1,5,5v12a5,5,0,0,1,-5,5h-58a5,5,0,0,1,-5,-5v-12a5,5,0,0,1,5,-5z" stroke-width="3"></path><g id="node_text6" fill="black"><text id="kity_text_65" text-rendering="inherit" font-size="12" dy=".8em" y="126.70000100880861" x="812.5000158175826">monitor&#xa0;</text></g></g><g id="minder_node7"><g id="node_expander6" style="cursor: pointer;"><path id="kity_path_76" fill="white" stroke="gray" d="M910.5000171884894,82.50000026077032A6,6,0,1,1,898.5000171884894,82.50000026077032A6,6,0,1,1,910.5000171884894,82.50000026077032"></path><path id="kity_path_77" fill="none" stroke="gray" d="M900.0000171884894,82.50000026077032L909.0000171884894,82.50000026077032"></path></g><path id="node_outline7" fill="none" stroke="none" d="M915.500017426908,71.50000026077032h38a5,5,0,0,1,5,5v12a5,5,0,0,1,-5,5h-38a5,5,0,0,1,-5,-5v-12a5,5,0,0,1,5,-5z" stroke-width="3"></path><g id="node_text7" fill="black"><text id="kity_text_73" text-rendering="inherit" font-size="12" dy=".8em" y="74.70000023394823" x="920.500017426908">Lock </text></g></g><g id="minder_node8"><g id="node_expander7" style="cursor: pointer;" display="none"><path id="kity_path_84" fill="white" stroke="gray" d="M910.5000171884894,134.5000010356307A6,6,0,1,1,898.5000171884894,134.5000010356307A6,6,0,1,1,910.5000171884894,134.5000010356307"></path><path id="kity_path_85" fill="none" stroke="gray"></path></g><path id="node_outline8" fill="none" stroke="none" d="M915.500017426908,123.5000010356307h67a5,5,0,0,1,5,5v12a5,5,0,0,1,-5,5h-67a5,5,0,0,1,-5,-5v-12a5,5,0,0,1,5,-5z" stroke-width="3"></path><g id="node_text8" fill="black"><text id="kity_text_81" text-rendering="inherit" font-size="12" dy=".8em" y="126.70000100880861" x="920.500017426908">Condition </text></g></g><g id="minder_node9"><g id="node_expander8" style="cursor: pointer;" display="none"><path id="kity_path_92" fill="white" stroke="gray" d="M802.500015579164,238.50000258535147A6,6,0,1,1,790.500015579164,238.50000258535147A6,6,0,1,1,802.500015579164,238.50000258535147"></path><path id="kity_path_93" fill="none" stroke="gray"></path></g><path id="node_outline9" fill="none" stroke="none" d="M807.5000158175826,227.50000258535147h113a5,5,0,0,1,5,5v12a5,5,0,0,1,-5,5h-113a5,5,0,0,1,-5,-5v-12a5,5,0,0,1,5,-5z" stroke-width="3"></path><g id="node_text9" fill="black"><text id="kity_text_89" text-rendering="inherit" font-size="12" dy=".8em" y="230.70000255852938" x="812.5000158175826">CountDownLatch</text></g></g><g id="minder_node10"><g id="node_expander9" style="cursor: pointer;" display="none"><path id="kity_path_100" fill="white" stroke="gray" d="M802.500015579164,290.50000336021185A6,6,0,1,1,790.500015579164,290.50000336021185A6,6,0,1,1,802.500015579164,290.50000336021185"></path><path id="kity_path_101" fill="none" stroke="gray"></path></g><path id="node_outline10" fill="none" stroke="none" d="M807.5000158175826,279.50000336021185h83a5,5,0,0,1,5,5v12a5,5,0,0,1,-5,5h-83a5,5,0,0,1,-5,-5v-12a5,5,0,0,1,5,-5z" stroke-width="3"></path><g id="node_text10" fill="black"><text id="kity_text_97" text-rendering="inherit" font-size="12" dy=".8em" y="282.70000333338976" x="812.5000158175826">CyclicBarrier</text></g></g><g id="minder_node11"><g id="node_expander10" style="cursor: pointer;" display="none"><path id="kity_path_108" fill="white" stroke="gray" d="M802.500015579164,342.50000413507223A6,6,0,1,1,790.500015579164,342.50000413507223A6,6,0,1,1,802.500015579164,342.50000413507223"></path><path id="kity_path_109" fill="none" stroke="gray"></path></g><path id="node_outline11" fill="none" stroke="none" d="M807.5000158175826,331.50000413507223h49a5,5,0,0,1,5,5v12a5,5,0,0,1,-5,5h-49a5,5,0,0,1,-5,-5v-12a5,5,0,0,1,5,-5z" stroke-width="3"></path><g id="node_text11" fill="black"><text id="kity_text_105" text-rendering="inherit" font-size="12" dy=".8em" y="334.70000410825014" x="812.5000158175826">Phaser</text></g></g><g id="minder_node12"><g id="node_expander11" style="cursor: pointer;" display="none"><path id="kity_path_116" fill="white" stroke="gray" d="M802.500015579164,394.5000049099326A6,6,0,1,1,790.500015579164,394.5000049099326A6,6,0,1,1,802.500015579164,394.5000049099326"></path><path id="kity_path_117" fill="none" stroke="gray"></path></g><path id="node_outline12" fill="none" stroke="none" d="M807.5000158175826,383.5000049099326h73a5,5,0,0,1,5,5v12a5,5,0,0,1,-5,5h-73a5,5,0,0,1,-5,-5v-12a5,5,0,0,1,5,-5z" stroke-width="3"></path><g id="node_text12" fill="black"><text id="kity_text_113" text-rendering="inherit" font-size="12" dy=".8em" y="386.7000048831105" x="812.5000158175826">Exchanger</text></g></g><g id="minder_node13"><g id="node_expander12" style="cursor: pointer;"><path id="kity_path_124" fill="white" stroke="gray" d="M802.500015579164,560.5000073835254A6,6,0,1,1,790.500015579164,560.5000073835254A6,6,0,1,1,802.500015579164,560.5000073835254"></path><path id="kity_path_125" fill="none" stroke="gray" d="M792.000015579164,560.5000073835254L801.000015579164,560.5000073835254"></path></g><path id="node_outline13" fill="none" stroke="none" d="M807.5000158175826,549.5000073835254h34a5,5,0,0,1,5,5v12a5,5,0,0,1,-5,5h-34a5,5,0,0,1,-5,-5v-12a5,5,0,0,1,5,-5z" stroke-width="3"></path><g id="node_text13" fill="black"><text id="kity_text_121" text-rendering="inherit" font-size="12" dy=".8em" y="552.7000073567033" x="812.5000158175826">无锁</text></g></g><g id="minder_node14"><g id="node_expander13" style="cursor: pointer;"><path id="kity_path_132" fill="white" stroke="gray" d="M802.500015579164,742.5000100955367A6,6,0,1,1,790.500015579164,742.5000100955367A6,6,0,1,1,802.500015579164,742.5000100955367"></path><path id="kity_path_133" fill="none" stroke="gray" d="M792.000015579164,742.5000100955367L801.000015579164,742.5000100955367"></path></g><path id="node_outline14" fill="none" stroke="none" d="M807.5000158175826,731.5000100955367h46a5,5,0,0,1,5,5v12a5,5,0,0,1,-5,5h-46a5,5,0,0,1,-5,-5v-12a5,5,0,0,1,5,-5z" stroke-width="3"></path><g id="node_text14" fill="black"><text id="kity_text_129" text-rendering="inherit" font-size="12" dy=".8em" y="734.7000100687146" x="812.5000158175826">互斥锁</text></g></g><g id="minder_node15"><g id="node_expander14" style="cursor: pointer;" display="none"><path id="kity_path_140" fill="white" stroke="gray" d="M886.5000168308616,508.500006608665A6,6,0,1,1,874.5000168308616,508.500006608665A6,6,0,1,1,886.5000168308616,508.500006608665"></path><path id="kity_path_141" fill="none" stroke="gray" d="M876.0000168308616,508.500006608665L885.0000168308616,508.500006608665"></path></g><path id="node_outline15" fill="none" stroke="none" d="M891.5000170692801,497.500006608665h163a5,5,0,0,1,5,5v12a5,5,0,0,1,-5,5h-163a5,5,0,0,1,-5,-5v-12a5,5,0,0,1,5,-5z" stroke-width="3"></path><g id="node_text15" fill="black"><text id="kity_text_137" text-rendering="inherit" font-size="12" dy=".8em" y="500.7000065818429" x="896.5000170692801">immutable data structures</text></g></g><g id="minder_node16"><g id="node_expander15" style="cursor: pointer;" display="none"><path id="kity_path_150" fill="white" stroke="gray" d="M886.5000168308616,560.5000073835254A6,6,0,1,1,874.5000168308616,560.5000073835254A6,6,0,1,1,886.5000168308616,560.5000073835254"></path><path id="kity_path_151" fill="none" stroke="gray" d="M876.0000168308616,560.5000073835254L885.0000168308616,560.5000073835254"></path></g><path id="node_outline16" fill="none" stroke="none" d="M891.5000170692801,549.5000073835254h27a5,5,0,0,1,5,5v12a5,5,0,0,1,-5,5h-27a5,5,0,0,1,-5,-5v-12a5,5,0,0,1,5,-5z" stroke-width="3"></path><g id="node_text16" fill="black"><text id="kity_text_147" text-rendering="inherit" font-size="12" dy=".8em" y="552.7000073567033" x="896.5000170692801">TLS</text></g></g><g id="minder_node23" opacity="1"><g id="node_expander22" style="cursor: pointer;" display="none"><path id="kity_path_207" fill="white" stroke="gray" d="M886.5000168308616,456.5000058338046A6,6,0,1,1,874.5000168308616,456.5000058338046A6,6,0,1,1,886.5000168308616,456.5000058338046"></path><path id="kity_path_208" fill="none" stroke="gray"></path></g><path id="node_outline23" fill="none" stroke="none" d="M891.5000170692801,445.5000058338046h94a5,5,0,0,1,5,5v12a5,5,0,0,1,-5,5h-94a5,5,0,0,1,-5,-5v-12a5,5,0,0,1,5,-5z" stroke-width="3"></path><g id="node_text23" fill="black"><text id="kity_text_204" text-rendering="inherit" font-size="12" dy=".8em" y="448.7000058069825" x="896.5000170692801">local variables</text></g></g><g id="minder_node24"><g id="node_expander23" style="cursor: pointer;" display="none"><path id="kity_path_216" fill="white" stroke="gray" d="M886.5000168308616,612.5000081583858A6,6,0,1,1,874.5000168308616,612.5000081583858A6,6,0,1,1,886.5000168308616,612.5000081583858"></path><path id="kity_path_217" fill="none" stroke="gray"></path></g><path id="node_outline24" fill="none" stroke="none" d="M891.5000170692801,601.5000081583858h95a5,5,0,0,1,5,5v12a5,5,0,0,1,-5,5h-95a5,5,0,0,1,-5,-5v-12a5,5,0,0,1,5,-5z" stroke-width="3"></path><g id="node_text24" fill="black"><text id="kity_text_213" text-rendering="inherit" font-size="12" dy=".8em" y="604.7000081315637" x="896.5000170692801">Copy-on-Write</text></g></g><g id="minder_node25" opacity="1"><g id="node_expander24" style="cursor: pointer;" display="none"><path id="kity_path_224" fill="white" stroke="gray" d="M998.5000184997916,82.50000026077032A6,6,0,1,1,986.5000184997916,82.50000026077032A6,6,0,1,1,998.5000184997916,82.50000026077032"></path><path id="kity_path_225" fill="none" stroke="gray"></path></g><path id="node_outline25" fill="none" stroke="none" d="M1003.5000187382102,71.50000026077032h98a5,5,0,0,1,5,5v12a5,5,0,0,1,-5,5h-98a5,5,0,0,1,-5,-5v-12a5,5,0,0,1,5,-5z" stroke-width="3"></path><g id="node_text25" fill="black"><text id="kity_text_221" text-rendering="inherit" font-size="12" dy=".8em" y="74.70000023394823" x="1008.5000187382102">ReadWriteLock</text></g></g><g id="minder_node26"><g id="node_expander25" style="cursor: pointer;" display="none"><path id="kity_path_232" fill="white" stroke="gray" d="M886.5000168308616,664.5000089332461A6,6,0,1,1,874.5000168308616,664.5000089332461A6,6,0,1,1,886.5000168308616,664.5000089332461"></path><path id="kity_path_233" fill="none" stroke="gray"></path></g><path id="node_outline26" fill="none" stroke="none" d="M891.5000170692801,653.5000089332461h109a5,5,0,0,1,5,5v12a5,5,0,0,1,-5,5h-109a5,5,0,0,1,-5,-5v-12a5,5,0,0,1,5,-5z" stroke-width="3"></path><g id="node_text26" fill="black"><text id="kity_text_229" text-rendering="inherit" font-size="12" dy=".8em" y="656.700008906424" x="896.5000170692801">atomic package</text></g></g><g id="minder_node27"><g id="node_expander26" style="cursor: pointer;" display="none"><path id="kity_path_240" fill="white" stroke="gray" d="M910.5000171884894,186.50000181049109A6,6,0,1,1,898.5000171884894,186.50000181049109A6,6,0,1,1,910.5000171884894,186.50000181049109"></path><path id="kity_path_241" fill="none" stroke="gray"></path></g><path id="node_outline27" fill="none" stroke="none" d="M915.500017426908,175.50000181049109h86a5,5,0,0,1,5,5v12a5,5,0,0,1,-5,5h-86a5,5,0,0,1,-5,-5v-12a5,5,0,0,1,5,-5z" stroke-width="3"></path><g id="node_text27" fill="black"><text id="kity_text_237" text-rendering="inherit" font-size="12" dy=".8em" y="178.700001783669" x="920.500017426908">synchronized </text></g></g><g id="minder_node28" opacity="1"><g id="node_expander27" style="cursor: pointer;"><path id="kity_path_250" fill="white" stroke="gray" d="M898.5000170096755,768.5000104829669A6,6,0,1,1,886.5000170096755,768.5000104829669A6,6,0,1,1,898.5000170096755,768.5000104829669"></path><path id="kity_path_251" fill="none" stroke="gray" d="M888.0000170096755,768.5000104829669L897.0000170096755,768.5000104829669"></path></g><path id="node_outline28" fill="none" stroke="none" d="M903.5000172480941,757.5000104829669h38a5,5,0,0,1,5,5v12a5,5,0,0,1,-5,5h-38a5,5,0,0,1,-5,-5v-12a5,5,0,0,1,5,-5z" stroke-width="3"></path><g id="node_text28" fill="black"><text id="kity_text_247" text-rendering="inherit" font-size="12" dy=".8em" y="760.7000104561448" x="908.5000172480941">Lock </text></g></g><g id="minder_node30"><g id="node_expander29" style="cursor: pointer;" display="none"><path id="kity_path_264" fill="white" stroke="gray" d="M898.5000170096755,716.5000097081065A6,6,0,1,1,886.5000170096755,716.5000097081065A6,6,0,1,1,898.5000170096755,716.5000097081065"></path><path id="kity_path_265" fill="none" stroke="gray"></path></g><path id="node_outline30" fill="none" stroke="none" d="M903.5000172480941,705.5000097081065h89a5,5,0,0,1,5,5v12a5,5,0,0,1,-5,5h-89a5,5,0,0,1,-5,-5v-12a5,5,0,0,1,5,-5z" stroke-width="3"></path><g id="node_text30" fill="black"><text id="kity_text_261" text-rendering="inherit" font-size="12" dy=".8em" y="708.7000096812844" x="908.5000172480941">synchronized&#xa0;</text></g></g><g id="minder_node29"><g id="node_expander28" style="cursor: pointer;" display="none"><path id="kity_path_256" fill="white" stroke="gray" d="M986.5000183209777,768.5000104829669A6,6,0,1,1,974.5000183209777,768.5000104829669A6,6,0,1,1,986.5000183209777,768.5000104829669"></path><path id="kity_path_257" fill="none" stroke="gray"></path></g><path id="node_outline29" fill="none" stroke="none" d="M991.5000185593963,757.5000104829669h99a5,5,0,0,1,5,5v12a5,5,0,0,1,-5,5h-99a5,5,0,0,1,-5,-5v-12a5,5,0,0,1,5,-5z"></path><g id="node_text29" fill="black"><text id="kity_text_253" text-rendering="inherit" font-size="12" dy=".8em" y="760.7000104561448" x="996.5000185593963">ReadWriteLock</text></g></g><g id="minder_node32" opacity="1"><g id="node_expander31" style="cursor: pointer;" display="none"><path id="kity_path_281" fill="white" stroke="gray" d="M246.5000072941184,301.5000035241246A6,6,0,1,1,234.5000072941184,301.5000035241246A6,6,0,1,1,246.5000072941184,301.5000035241246"></path><path id="kity_path_282" fill="none" stroke="gray"></path></g><path id="node_outline32" fill="none" stroke="none" d="M96.500005222857,290.5000035241246h133a5,5,0,0,1,5,5v12a5,5,0,0,1,-5,5h-133a5,5,0,0,1,-5,-5v-12a5,5,0,0,1,5,-5z" stroke-width="3"></path><g id="node_text32" fill="black"><text id="kity_text_278" text-rendering="inherit" font-size="12" dy=".8em" y="293.70000349730253" x="101.500005222857">ThreadPool/Executor</text></g></g><g id="minder_node33"><g id="node_expander32" style="cursor: pointer;" display="none"><path id="kity_path_289" fill="white" stroke="gray" d="M246.5000072941184,353.500004298985A6,6,0,1,1,234.5000072941184,353.500004298985A6,6,0,1,1,246.5000072941184,353.500004298985"></path><path id="kity_path_290" fill="none" stroke="gray" d="M236.0000072941184,353.500004298985L245.0000072941184,353.500004298985"></path></g><path id="node_outline33" fill="none" stroke="none" d="M70.50000483542681,342.500004298985h159a5,5,0,0,1,5,5v12a5,5,0,0,1,-5,5h-159a5,5,0,0,1,-5,-5v-12a5,5,0,0,1,5,-5z" stroke-width="3"></path><g id="node_text33" fill="black"><text id="kity_text_286" text-rendering="inherit" font-size="12" dy=".8em" y="345.7000042721629" x="75.50000483542681">ForkJoinPool/ForkJoinTask </text></g></g><g id="minder_node34"><g id="node_expander33" style="cursor: pointer;" display="none"><path id="kity_path_297" fill="white" stroke="gray" d="M246.5000072941184,457.50000584870577A6,6,0,1,1,234.5000072941184,457.50000584870577A6,6,0,1,1,246.5000072941184,457.50000584870577"></path><path id="kity_path_298" fill="none" stroke="gray"></path></g><path id="node_outline34" fill="none" stroke="none" d="M25.500004164874554,446.50000584870577h204a5,5,0,0,1,5,5v12a5,5,0,0,1,-5,5h-204a5,5,0,0,1,-5,-5v-12a5,5,0,0,1,5,-5z" stroke-width="3"></path><g id="node_text34" fill="black"><text id="kity_text_294" text-rendering="inherit" font-size="12" dy=".8em" y="449.7000058218837" x="30.500004164874554">Guarded Suspension (wait/notify)</text></g></g><g id="minder_node35"><g id="node_expander34" style="cursor: pointer;" display="none"><path id="kity_path_305" fill="white" stroke="gray" d="M246.5000072941184,509.50000662356615A6,6,0,1,1,234.5000072941184,509.50000662356615A6,6,0,1,1,246.5000072941184,509.50000662356615"></path><path id="kity_path_306" fill="none" stroke="gray"></path></g><path id="node_outline35" fill="none" stroke="none" d="M86.50000507384539,498.50000662356615h143a5,5,0,0,1,5,5v12a5,5,0,0,1,-5,5h-143a5,5,0,0,1,-5,-5v-12a5,5,0,0,1,5,-5z" stroke-width="3"></path><g id="node_text35" fill="black"><text id="kity_text_302" text-rendering="inherit" font-size="12" dy=".8em" y="501.70000659674406" x="91.50000507384539">Balking pattern (reject)</text></g></g><g id="minder_node37" opacity="1"><g id="node_expander36" style="cursor: pointer;" display="none"><path id="kity_path_321" fill="white" stroke="gray" d="M246.5000072941184,561.5000073984265A6,6,0,1,1,234.5000072941184,561.5000073984265A6,6,0,1,1,246.5000072941184,561.5000073984265"></path><path id="kity_path_322" fill="none" stroke="gray"></path></g><path id="node_outline37" fill="none" stroke="none" d="M69.50000482052565,550.5000073984265h160a5,5,0,0,1,5,5v12a5,5,0,0,1,-5,5h-160a5,5,0,0,1,-5,-5v-12a5,5,0,0,1,5,-5z" stroke-width="3"></path><g id="node_text37" fill="black"><text id="kity_text_318" text-rendering="inherit" font-size="12" dy=".8em" y="553.7000073716044" x="74.50000482052565">Messaging design pattern</text></g></g><g id="minder_node42"><g id="node_expander41" style="cursor: pointer;" display="none"><path id="kity_path_361" fill="white" stroke="gray" d="M246.5000072941184,405.5000050738454A6,6,0,1,1,234.5000072941184,405.5000050738454A6,6,0,1,1,246.5000072941184,405.5000050738454"></path><path id="kity_path_362" fill="none" stroke="gray"></path></g><path id="node_outline42" fill="none" stroke="none" d="M39.50000437349081,394.5000050738454h190a5,5,0,0,1,5,5v12a5,5,0,0,1,-5,5h-190a5,5,0,0,1,-5,-5v-12a5,5,0,0,1,5,-5z" stroke-width="3"></path><g id="node_text42" fill="black"><text id="kity_text_358" text-rendering="inherit" font-size="12" dy=".8em" y="397.7000050470233" x="44.50000437349081">ScheduledThreadPoolExecutor</text></g></g><g id="kity_g_12" display="none"><path id="kity_path_13" fill="none" stroke="rgb(66, 94, 112)" d="M86.50001095980406,420.5000054612756h143a5,5,0,0,1,5,5v12a5,5,0,0,1,-5,5h-143a5,5,0,0,1,-5,-5v-12a5,5,0,0,1,5,-5z" stroke-width="5"></path></g></g></g></svg>