<svg xmlns="http://www.w3.org/2000/svg" width="842pt" height="595pt" viewBox="0 0 842 595"><g stroke-linecap="round" stroke-linejoin="round" fill="none" stroke="#000"><path d="M205.55 406.56c0-5.16-4.2-9.24-9.36-9.24-5.16 0-9.24 4.08-9.24 9.24s4.08 9.36 9.24 9.36 9.36-4.2 9.36-9.36z" stroke-width=".12"/><path d="M200.51 406.56c0-2.4-1.92-4.2-4.32-4.2-2.4 0-4.2 1.8-4.2 4.2 0 2.4 1.8 4.32 4.2 4.32 2.4 0 4.32-1.92 4.32-4.32zM186.71 394.92h.96M186.35 394.68l.36.24M186.35 391.2v3.48M186.71 390.84l-.36.36M187.67 390.84h-.96M189.83 391.08h-2.16M189.83 394.8h-2.16M188.75 392.64v-1.32M187.79 393.48h1.92M188.75 393.48v.96M187.79 392.64l.96.84M189.71 392.64h-1.92M188.75 393.48l.96-.84M189.83 395.4h-2.16M189.83 390.36v5.04M187.67 390.36h2.16M187.67 395.4v-5.04M186.71 383.64h.96M186.35 383.28l.36.36M186.35 379.92v3.36M186.71 379.56l-.36.36M187.67 379.56h-.96M189.83 379.68h-2.16M189.83 383.52h-2.16M188.75 381.24v-1.2M187.79 382.2h1.92M188.75 382.2v.96M187.79 381.24l.96.96M189.71 381.24h-1.92M188.75 382.2l.96-.96M189.83 384.12h-2.16M189.83 379.08v5.04M187.67 379.08h2.16M187.67 384.12v-5.04M193.67 364.92h8.76M193.67 354.36v10.56M190.07 350.76l3.6 3.6M190.07 308.64v42.12M193.43 305.16l-3.36 3.48M193.43 294.48v10.68M202.43 294.48h-9M205.55 252.6c0-5.16-4.2-9.24-9.36-9.24-5.16 0-9.24 4.08-9.24 9.24s4.08 9.36 9.24 9.36 9.36-4.2 9.36-9.36z" stroke-width=".12"/><path d="M200.51 252.6c0-2.4-1.92-4.2-4.32-4.2-2.4 0-4.2 1.8-4.2 4.2 0 2.4 1.8 4.32 4.2 4.32 2.4 0 4.32-1.92 4.32-4.32zM206.03 419.64v1.92M231.23 419.64h-25.2M206.03 421.56h25.2M202.43 364.92v-70.44M199.55 354.84h2.88M199.55 304.56v50.28M206.03 304.08h33M206.03 262.56v41.52M202.43 304.56h-2.88M239.03 262.56h-33M206.87 402.96v16.68M206.87 419.64h23.52M230.39 402.96h-23.52M207.59 244.92v15.72M207.59 260.64h159.72M367.31 244.92H207.59M231.23 421.56v-1.92M230.39 419.64v-16.68M239.03 304.08v-41.52M248.15 296.64v44.04M248.15 340.68h43.92M250.43 298.44c0-.24-.24-.48-.6-.48-.24 0-.48.24-.48.48s.24.6.48.6c.36 0 .6-.36.6-.6zM292.07 296.64h-43.92M263.15 422.4h45.48M263.15 384.24v38.16M308.63 384.24h-45.48M292.07 340.68v-44.04M308.63 422.4v-38.16M322.19 346.44v70.32M322.19 416.76h9M322.19 406.68h2.88M325.07 356.4h-2.88M330.95 346.44h-8.76M331.19 416.76v-10.68M325.07 406.68V356.4M331.19 406.08l3.36-3.48M334.55 360.48l-3.6-3.6M330.95 356.88v-10.44M344.03 417.72v7.92M362.87 417.72h-18.84M344.03 425.64h18.84M342.47 378.48v39.24M342.47 417.72h21.96M334.55 402.6v-42.12M364.43 378.48h-21.96M362.87 425.64v-7.92M364.43 417.72v-39.24M387.83 406.56c0-5.16-4.2-9.24-9.36-9.24-5.16 0-9.24 4.08-9.24 9.24s4.08 9.36 9.24 9.36 9.36-4.2 9.36-9.36zM370.79 288.84v6.24M370.79 295.08h15.72M386.51 288.84h-15.72M386.39 279.12h-15.6M370.79 279.12v-14.28M387.83 252.6c0-5.16-4.2-9.24-9.36-9.24-5.16 0-9.24 4.08-9.24 9.24s4.08 9.36 9.24 9.36 9.36-4.2 9.36-9.36zM370.79 264.84h15.6M367.31 260.64v-15.72" stroke-width=".12"/><path d="M382.79 406.56c0-2.4-1.92-4.2-4.32-4.2-2.4 0-4.2 1.8-4.2 4.2 0 2.4 1.8 4.32 4.2 4.32 2.4 0 4.32-1.92 4.32-4.32zM382.79 252.6c0-2.4-1.92-4.2-4.32-4.2-2.4 0-4.2 1.8-4.2 4.2 0 2.4 1.8 4.32 4.2 4.32 2.4 0 4.32-1.92 4.32-4.32zM391.67 409.92h67.08M391.67 361.2v48.72M458.75 361.2h-67.08M386.51 295.08v-6.24M386.39 264.84v14.28M403.07 347.28v-41.4M458.75 347.28h-55.68M403.07 305.88h55.68M403.07 290.64v-41.28M458.75 290.64h-55.68M403.07 249.36h55.68M458.75 409.92V361.2M457.19 349.68v-2.4M458.75 349.68h-1.56M458.75 305.88v43.8M457.19 303.48v2.4M458.75 303.48h-1.56M458.75 305.88v-2.4M457.19 293.16v-2.52M458.75 293.16h-1.56M458.75 249.36v43.8M457.19 246.96v2.4M458.75 246.96h-1.56M458.75 249.36v-2.4M185.39 408.36c0 5.04 4.08 9.24 9.24 9.24h.12s0 0 0 0M185.27 251.16v157.2M194.75 241.8h-.12s.12 0 0 0c-5.16 0-9.24 4.08-9.24 9.24v.12s0 0 0 0M194.75 417.72h248.28M443.03 241.68H194.75M443.03 417.6c5.04-.12 9.12-4.2 9.24-9.24M452.51 408.36v-157.2M452.27 251.16v-.12s0 .12 0 0c0-5.16-4.2-9.24-9.24-9.24M87.11 394.2l1.92 12.48M188.39 406.68H81.23M91.07 394.2h-3.96" stroke-width=".12"/><path stroke-width=".72" d="M87.35 332.28v-6.24l-2.4 4.44h3.24M90.47 331.56l.48.48.48.24.6-.24.48-.6.24-.96.12-.96v-1.08l-.12-.96-.24-.84-.48-.48-.36-.12-.6.12-.36.48-.24.6-.12.84.12.72.36.72.36.48.48.12.48-.24.36-.6.36-.84"/><path d="M87.11 265.32h3.96M89.03 252.72l-1.92 12.6M188.39 252.72H81.23M89.03 406.68l2.04-12.48M89.03 337.32v69.36M89.03 320.88v-68.16M91.07 265.32l-2.04-12.6" stroke-width=".12"/><path stroke-width=".72" d="M104.03 448.92l.36.72.6.36.6.12.48-.12.48-.48.36-.6.12-.6-.12-.72-.48-.6-.48-.12h-.6"/><path stroke-width=".72" d="M105.95 446.88l.36-.36.36-.48.12-.72-.12-.6-.36-.48-.6-.36-.6.12-.48.48M110.63 450.36l-.24-.12V450h.36v.24l-.12.12M114.23 449.28l.36.48.48.24.6.12.6-.12.48-.48.24-.72.12-.84-.12-.84-.36-.48-.48-.48-.48-.12-.36.12-.6.48.12-2.76h1.8"/><path d="M191.51 417.72h-88.8M188.39 406.68h-85.68M110.63 438.84v-21.12M108.59 430.32h3.96M110.63 417.72l-2.04 12.6M112.55 430.32l-1.92-12.6M110.63 406.68l1.92-12.48M108.59 394.2l2.04 12.48M110.63 381.6v25.08M112.55 394.2h-3.96M192.95 417.72h-66M190.07 329.76h-63.12M134.75 417.72l2.04-12.6M132.83 405.12l1.92 12.6M134.75 377.52v40.2M136.79 405.12h-3.96" stroke-width=".12"/><path stroke-width=".72" d="M131.03 367.32l.36-.6.48-.36.48-.12.6.24.48.48.12.6v.72l-.24.48-1.32 1.08-.6.72-.36.96-.12.96h2.64M137.27 372.48l.48-.12.48-.24.36-.6.12-.72-.12-.72-.36-.6-.6-.36h-.6l-.48-.12-.24-.6-.12-.72.12-.72.48-.48.48-.24.6.24.36.48.24.72-.12.72-.36.6-.36.12h-.6l-.6.36-.48.6-.12.72.12.72.36.6.6.24.36.12"/><path d="M134.75 361.2v-31.44M132.83 342.36h3.96M134.75 329.76l-1.92 12.6M136.79 342.36l-2.04-12.6M188.39 252.72h-53.16M190.43 241.68h-55.2" stroke-width=".12"/><path stroke-width=".72" d="M136.55 213.48l.36.72.6.48.6.12.48-.12.48-.48.36-.72.12-.6-.24-.72-.36-.48-.48-.24h-.6M138.47 211.44l.36-.36.36-.48.12-.6-.12-.6-.36-.6-.6-.24h-.6l-.6.48M143.03 214.92h-.12v-.24l.12-.12.12.12v.24h-.12M146.75 213.84l.36.48.48.36.6.12.6-.24.36-.36.36-.84.12-.84-.12-.72-.36-.6-.48-.36-.48-.12-.48.12-.48.36.12-2.64h1.8M141.83 454.8v-6.36l-.72 1.32M141.11 454.8h1.56M146.99 448.44l-.6.24-.36.48-.24.72-.24.84v1.8l.24.84.24.6.36.6.6.24.48-.24.36-.6.36-.6.12-.84.12-.96-.12-.84-.12-.84-.36-.72-.36-.48-.48-.24M152.03 454.92l-.12-.12v-.12l.12-.12.12.12v.12l-.12.12M155.87 452.16l.48-.72.36-.48.6-.12.36.12.36.48.24.6.12.72-.12.6-.24.6-.36.6-.48.24-.48-.24-.48-.6-.24-.96-.12-1.08.12-1.32.24-.72.36-.72.36-.6.48-.12.48.24.36.48M143.39 433.32l.48.72.48.48.6.12.48-.12.48-.48.36-.72.12-.6-.12-.72-.48-.48-.48-.24h-.6"/><path stroke-width=".72" d="M145.31 431.28l.36-.36.36-.48.12-.6-.12-.6-.36-.6-.6-.24h-.48l-.6.48M149.99 434.76h-.12v-.24l.12-.12.12.12v.24h-.12M153.59 433.68l.36.48.48.36.6.12.6-.24.48-.36.24-.84.12-.84-.12-.72-.36-.6-.48-.36-.36-.12-.48.12-.6.36.12-2.64h1.8"/><path d="M143.03 277.92v-25.2M141.11 265.32h3.96M143.03 252.72l-1.92 12.6M145.07 265.32l-2.04-12.6M143.03 241.68l2.04-12.48M141.11 229.2l1.92 12.48M143.03 219.84v21.84M145.07 229.2h-3.96M164.15 451.56h21.12M162.11 431.52h23.16M172.79 429.48v3.96M185.27 431.52l-12.48-2.04M172.79 433.44l12.48-1.92M185.27 409.92v82.44M185.27 484.56l12.6 1.92M197.87 482.52l-12.6 2.04M255.95 484.56h-70.68M185.27 410.28v62.76M185.27 414.96v44.52M185.27 465.12l12.6 1.92M197.87 463.2l-12.6 1.92M227.63 465.12h-42.36M185.27 451.56h33.36M185.27 451.56l12.6 2.04M197.87 449.64l-12.6 1.92M185.27 414v25.32M185.27 233.52v-53.64M185.27 187.68l12.6 2.04M197.87 185.76l-12.6 1.92M309.11 187.68H185.27" stroke-width=".12"/><path stroke-width=".48" d="M192.35 350.16v-1.68l4.32 1.68v-1.68M195.23 346.32v-1.2M196.67 343.2h-4.32M192.35 341.28h4.32M194.51 341.28v1.92M194.75 339.36v-1.44l-.48.12-.24.24-.24.36.12.24.24.36.48.12.48.12h.36l.48-.12.36-.24.36-.24v-.36l-.12-.24-.36-.36M193.79 335.16h2.88M192.71 335.16l-.12.12h-.12l-.12-.12.12-.12h.12l.12.12M197.87 332.28l.24-.36.12-.36-.12-.24-.36-.36-.48-.12h-3.48"/><path stroke-width=".48" d="M194.39 330.84l-.24.12-.24.36-.12.24.24.36.24.24.48.24h.96l.48-.12.36-.36.12-.36v-.24l-.36-.36-.24-.12M196.67 328.92h-4.32M194.51 328.92l-.36-.24-.24-.24-.12-.36.12-.24.24-.36.48-.12h2.04M192.35 324.6h4.32M193.79 325.2V324M195.95 321.6v-1.2M194.63 320.4v1.2M196.07 318.48l.36-.24.24-.36v-.36l-.12-.36-.24-.36-.48-.24h-1.2l-.36.24-.24.36-.12.36.12.24.24.48-1.92-.24v-1.2M196.91 314.04h-.36l.12-.12h.12l.12.12M196.07 311.4l.36-.24.24-.24v-.48l-.12-.36-.24-.36-.48-.24h-.6l-.6.12-.36.12-.24.36-.12.36.12.24.24.48-1.92-.12v-1.32"/><path d="M197.87 486.48v-3.96M197.87 467.04v-3.84M206.03 449.64v3.96M218.63 451.56l-12.6-1.92M206.03 453.6l12.6-2.04M197.87 453.6v-3.96M196.31 414.6v24.72M196.31 431.52l12.6 1.92M208.91 429.48l-12.6 2.04M221.51 431.52h-25.2M196.31 244.92v-47.04M196.31 244.92v-26.04M196.31 226.68l12.6 2.04M208.91 224.76l-12.6 1.92M233.99 226.68h-37.68M196.31 205.8l12.6 1.92M208.91 203.76l-12.6 2.04M278.03 205.8h-81.72M197.87 189.72v-3.96M208.91 433.44v-3.96M208.91 228.72v-3.96M208.91 207.72v-3.96M218.63 420.6v38.88" stroke-width=".12"/><path stroke-width=".72" d="M233.15 467.04l.48.72.48.36.6.12.48-.12.48-.48.36-.6.12-.6-.12-.84-.48-.48-.48-.24h-.6M235.07 464.88l.36-.24.36-.6.12-.6-.12-.6-.36-.48-.6-.36-.48.12-.6.36M238.43 463.08l.48-.72.36-.24.6-.12.6.24.48.48.12.6-.12.72-.24.48-1.32 1.08-.48.72-.48.96-.12.96h2.76"/><path stroke-width=".48" d="M226.67 249.36h1.8l-1.8 4.44h1.8M230.51 252.24h1.2M233.63 253.8v-4.44M235.55 249.36v4.44M235.55 251.52h-1.92M237.47 251.76h1.44l-.12-.48-.24-.24-.24-.24-.36.12-.24.24-.24.48-.12.48v.36l.12.48.24.36.24.36.36.12.36-.24.24-.36M241.67 250.8v3M241.67 249.72l-.12-.12v-.12l.12-.12.12.12v.12l-.12.12M244.55 254.88l.36.24.36.12.36-.12.24-.36.12-.48v-3.48"/><path stroke-width=".48" d="M245.99 251.4l-.12-.24-.24-.24-.36-.12-.36.24-.24.24-.12.48-.12.48v.48l.24.48.24.36.36.24.24-.12.36-.36.12-.24M248.03 253.8v-4.44M248.03 251.52l.24-.36.12-.24.36-.12.36.12.24.24.12.48v2.16M252.23 249.36v4.44M251.63 250.8h1.32M255.23 252.96h1.2M256.43 251.64h-1.2M259.31 253.8l.36-.12.36-.24.24-.36.12-.48-.12-.48-.24-.48-.48-.24h-.48l-.24-.12-.24-.36v-.48l.12-.48.24-.48.36-.12.36.12.36.48.12.48-.12.48-.24.36-.24.12h-.48l-.36.24-.24.48-.12.48.12.48.24.36.36.24.24.12M262.91 253.92l-.12-.12v-.12l.12-.12.12.12v.12l-.12.12M265.43 253.08l.24.36.36.24.36.12.48-.24.24-.24.24-.48v-1.2l-.24-.36-.36-.24-.24-.12-.36.12-.36.24.12-1.92h1.2"/><path stroke-width=".72" d="M239.75 224.64l.36-.6.48-.36.48-.12.72.24.48.48.12.6-.12.72-.24.48-1.32 1.08-.6.72-.36.96-.12.96h2.76M245.03 229.08l.36.48.6.24.48-.24.48-.6.36-.96.12-.84v-1.2l-.12-.96-.36-.84-.36-.36-.48-.24-.6.24-.36.36-.24.6-.12.84.12.84.36.72.36.36.48.12.48-.24.36-.48.48-.96"/><path d="M246.71 465.12h39.12M253.07 226.68h34.44" stroke-width=".12"/><path stroke-width=".72" d="M261.59 486.72l.36.48.48.36.6.12.6-.24.48-.48.24-.72.12-.84-.12-.84-.36-.48-.48-.36-.48-.12-.36.12-.6.36.12-2.76h1.8M266.63 486.36l.48.72.48.48.6.12.48-.12.6-.6.24-.6.12-.6-.12-.72-.48-.48-.48-.24h-.6"/><path stroke-width=".72" d="M268.55 484.32l.36-.36.36-.48.12-.6-.12-.72-.36-.48-.6-.36-.48.12-.6.48M273.23 487.8l-.12-.12v-.12l.12-.12.12.12v.12l-.12.12M276.83 486.72l.36.48.48.36.6.12.6-.24.48-.48.24-.72.12-.84-.12-.84-.36-.48-.48-.36-.36-.12-.48.12-.6.36.24-2.76h1.68"/><path stroke-width=".48" d="M265.79 397.68h1.68l-1.68 4.44h1.68M269.63 400.68h1.08M272.75 402.12v-4.44M274.67 397.68v4.44M274.67 399.96h-1.92M276.59 400.08h1.44l-.12-.48-.24-.24-.36-.12h-.36l-.24.24-.12.48-.12.48v.36l.12.48.24.48.24.24.36.12.24-.24.36-.36M280.79 399.24v2.88M280.79 398.04l-.12-.12v-.12l.12-.12.12.12v.12l-.12.12M283.67 403.2l.36.24.36.12.24-.12.36-.36.12-.48v-3.36"/><path stroke-width=".48" d="M285.11 399.72l-.12-.24-.36-.24h-.24l-.36.12-.24.24-.24.48-.12.6.12.36.12.48.36.36.36.24.24-.12.36-.24.12-.36M287.03 402.12v-4.44M287.03 399.84l.24-.36.24-.24h.6l.36.36.12.36v2.16M291.35 397.68v4.44M290.75 399.24h1.2M294.35 401.28h1.08M295.43 399.96h-1.08M297.59 400.32l.24-.6.36-.24.36-.12.24.12.24.24.24.48v.96l-.24.36-.24.36-.36.24-.36-.24-.24-.36-.24-.72v-1.56l.24-.6.24-.48.24-.36.36-.12.24.24.24.36M301.91 402.24v-.36l.12.12v.12l-.12.12M304.43 401.4l.36.36.24.24.48.12.36-.24.36-.24.24-.48v-.6l-.12-.6-.24-.36-.24-.24-.36-.12-.36.12-.36.24.12-1.92h1.2"/><path d="M273.35 463.2v3.84M273.35 467.04l12.48-1.92M285.83 465.12l-12.48-1.92M274.91 224.76v3.96M287.51 226.68l-12.6-1.92M274.91 228.72l12.6-2.04" stroke-width=".12"/><path stroke-width=".72" d="M283.67 207.96l.36.48.48.36.6.12.6-.24.36-.36.36-.84.12-.72-.12-.84-.36-.6-.48-.36-.48-.12-.48.12-.48.36.12-2.64h1.8M290.15 208.92l.48-.12.48-.36.36-.48.12-.72-.12-.72-.36-.6-.6-.36h-.72l-.36-.24-.36-.48-.12-.72.24-.72.48-.6.48-.12.48.12.48.6.24.72-.12.72-.36.48-.36.24h-.72l-.6.36-.36.6-.12.72.12.72.36.48.48.36.48.12"/><path d="M285.35 484.56h68.16M285.83 406.56v66.48M285.83 406.56v66.48M285.83 465.12l12.6 2.04M298.43 463.2l-12.6 1.92M297.59 465.12h-11.76M287.51 244.92v-26.04" stroke-width=".12"/><path stroke-width=".72" d="M304.55 468.24V462l-.72 1.32M303.83 468.24h1.56M308.27 467.04l.36.72.48.36.6.12.48-.12.6-.48.24-.6.12-.6-.12-.72-.48-.6-.48-.12h-.6"/><path stroke-width=".72" d="M310.07 465l.48-.36.24-.48.12-.72-.12-.6-.24-.48-.6-.36-.6.12-.6.48"/><path d="M298.43 467.16v-3.96M297.23 205.8h81.36M314.15 463.2v3.96M314.15 467.16l12.6-2.04M326.75 465.12l-12.6-1.92" stroke-width=".12"/><path stroke-width=".72" d="M313.31 293.64l.36.6.6.24.48-.24.48-.6.36-.96.12-.96v-1.2l-.12-.84-.36-.84-.36-.48-.48-.24-.6.24-.36.48-.24.6-.12.84.12.72.36.72.36.36.48.12.48-.12.36-.6.48-.96M319.43 294.6l-.12-.12v-.12l.12-.12.12.12v.12l-.12.12M323.27 291.84l.48-.72.36-.48.6-.24.36.24.36.48.24.6.12.72-.12.6-.24.6-.36.6-.48.24-.48-.24-.48-.6-.24-.96-.12-1.08.12-1.32.24-.72.36-.72.36-.6.48-.12.48.24.36.48M328.43 289.2l.36-.6.48-.36.48-.12.6.24.48.48.12.72v.6l-.24.48-1.32 1.08-.6.72-.36 1.08-.24.96h2.76M333.23 293.16l.48.72.48.48.6.12.48-.12.48-.6.36-.6.12-.6-.12-.72-.48-.6-.48-.12h-.6"/><path stroke-width=".72" d="M335.15 291.12l.36-.36.36-.48.12-.6-.12-.72-.36-.48-.6-.36-.48.12-.6.48M316.07 190.8l.48-.12.48-.24.36-.6.12-.72-.12-.72-.36-.6-.6-.24h-.6l-.48-.24-.24-.6-.24-.72.24-.72.48-.48.48-.24.6.24.36.48.24.72-.12.72-.36.6-.36.24h-.6l-.6.24-.48.6-.12.72.12.72.36.6.48.24.48.12M319.79 189.84l.36.6.48.24.6.12.6-.12.36-.48.36-.72.12-.84-.24-.84-.24-.48-.48-.48-.48-.12-.48.12-.6.48.24-2.76h1.8"/><path d="M316.67 465.12h10.08M322.55 259.44l1.92 12.48M370.79 271.92h-54.12M322.55 254.28h3.96M324.47 241.68l-1.92 12.6M326.51 259.44h-3.96M366.71 241.68h-50.04M326.75 389.4v83.64" stroke-width=".12"/><path stroke-width=".48" d="M327.95 402.6v-1.8l4.32 1.8v-1.8M330.83 398.76v-1.2M332.27 395.64h-4.32M327.95 393.72h4.32M330.11 393.72v1.92M330.35 391.8v-1.44l-.6.12-.24.24-.12.36v.24l.24.24.48.24.48.12h.48l.36-.12.48-.24.24-.24.12-.36-.12-.24-.48-.36M329.39 387.6h2.88M328.19 387.6v.12h-.24v-.24h.24v.12M333.35 384.72l.24-.36.12-.36-.12-.36-.36-.24-.48-.12h-3.36"/><path stroke-width=".48" d="M329.99 383.28l-.36.12-.24.24v.36l.12.36.24.24.6.12.48.12h.48l.48-.24.36-.24.12-.36-.12-.24-.24-.36-.24-.12M332.27 381.24h-4.32M329.99 381.24l-.36-.12-.24-.24v-.72l.36-.24.36-.12h2.16M327.95 377.04h4.32M329.39 377.64v-1.32M331.43 374.04v-1.2M330.11 372.84v1.2M331.67 370.92l.36-.24.12-.36.12-.36-.12-.48-.36-.24-.48-.24-.6-.12-.6.12-.36.24-.24.36-.12.24.12.36.24.36-1.8-.12v-1.2M332.39 366.36v.12h-.24v-.12h.24M331.67 363.84l.36-.24.12-.36.12-.36-.12-.36-.36-.36-.48-.24h-1.2l-.36.24-.24.36-.12.36.12.24.24.48-1.8-.24v-1.2"/><path d="M324.47 283.08v-11.16M324.47 271.92v-30.24M324.47 271.92l2.04-12.48M326.51 254.28l-2.04-12.6M328.19 187.68h124.32M340.91 482.52v3.96M340.91 486.48l12.6-1.92M353.51 484.56l-12.6-2.04M344.03 436.56h25.2M334.55 381.6h244.2" stroke-width=".12"/><path stroke-width=".72" d="M342.59 312v-6.36l-.72 1.32M341.87 312h1.56M346.31 311.04l.36.48.48.36.6.12.48-.24.48-.48.36-.72.12-.84-.24-.84-.24-.48-.48-.36-.48-.12-.48.12-.6.36.24-2.76h1.8M352.79 312.12h-.12v-.24l.12-.12.12.12v.24h-.12M356.75 311.28l.48.48.48.24.6-.24.36-.6.36-.96.12-.96v-1.2l-.12-.84-.36-.84-.36-.48-.48-.24-.48.24-.36.48-.24.6-.24.84.24.72.24.72.36.48h.48l.6-.12.36-.6.36-.96M361.79 311.28l.48.48.6.24.48-.24.48-.6.24-.96.24-.96v-1.2l-.24-.84-.24-.84-.48-.48-.36-.24-.6.24-.36.48-.24.6-.12.84.12.72.36.72.36.48h.48l.48-.12.36-.6.48-.96"/><path d="M353.51 414.6v77.76M349.19 461.16h25.08M352.79 300.6v-8.64M352.79 291.96v-50.28M352.79 291.96l1.92-12.6M350.87 279.36l1.92 12.6M370.79 291.96h-25.92M354.71 279.36h-3.84M350.87 254.28h3.84M352.79 241.68l-1.92 12.6M354.71 254.28l-1.92-12.6M356.87 241.68h-12M361.67 459.24v3.96M374.27 461.16l-12.6-1.92M361.67 463.2l12.6-2.04M356.63 434.64v3.84M356.63 438.48l12.6-1.92M369.23 436.56l-12.6-1.92" stroke-width=".12"/><path stroke-width=".48" d="M354.95 416.52v-1.68l4.44 1.68v-1.68M357.95 412.8v-1.2M359.39 409.56h-4.44M354.95 407.76h4.44M357.23 407.76v1.8M357.35 405.84v-1.44l-.48.12-.24.24-.24.24.12.36.24.24.48.24h1.32l.48-.24.24-.24.12-.36-.24-.36-.36-.24M356.39 401.64h3M355.31 401.64h-.36l.12-.12h.12l.12.12M360.47 398.64l.24-.24.12-.36-.12-.36-.36-.24-.48-.24h-3.48"/><path stroke-width=".48" d="M356.99 397.2l-.24.24-.24.24-.12.36.24.36.24.24.48.12.6.12h.36l.48-.24.36-.24.24-.36-.12-.24-.24-.36-.36-.24M359.39 395.28h-4.44M357.11 395.28l-.36-.24-.24-.24-.12-.36.12-.24.36-.24.36-.24h2.16M354.95 390.96h4.44M356.39 391.68v-1.32M358.55 388.08v-1.2M357.23 386.88v1.2M357.59 384.84l-.6-.36-.24-.24-.12-.36.12-.36.24-.24.48-.12.48-.12.48.12.36.12.36.36.24.24-.24.36-.36.36-.72.12-.72.12-.96-.12-.48-.12-.48-.24-.36-.36-.12-.24.24-.36.36-.24"/><path d="M369.23 414.6v29.88M365.99 203.76v3.96M378.59 205.8l-12.6-2.04M365.99 207.72l12.6-1.92M382.91 414.6v54.48M374.27 414.6v54.48M382.91 461.16l12.6 2.04M395.51 459.24l-12.6 1.92M404.75 461.16h-21.84M378.59 300.24l12.6 1.92M391.19 298.2l-12.6 2.04M399.95 300.24h-21.36M378.59 299.88v8.16M378.59 244.92v-47.04M388.07 436.56l12.6 1.92M388.07 414.6v29.88M400.67 434.64l-12.6 1.92M411.47 436.56h-23.4M391.19 302.16v-3.96M395.51 463.2v-3.96M400.67 438.48v-3.84" stroke-width=".12"/><path stroke-width=".48" d="M398.75 391.56h1.68l-1.68 4.32h1.68M402.59 394.44h1.08M405.71 395.88v-4.32M407.63 391.56v4.32M407.63 393.72h-1.92M409.55 393.96h1.44l-.12-.48-.24-.36-.36-.12-.24.12-.36.12-.12.6-.12.36v.48l.12.48.24.36.24.36h.36l.24-.12.36-.48M413.75 393v2.88M413.75 391.8h-.12v-.12l.12-.12.12.12v.12h-.12M416.63 396.96l.36.36h.6l.36-.36.12-.6V393"/><path stroke-width=".48" d="M418.07 393.6l-.12-.36-.36-.12-.24-.12-.36.12-.24.36-.24.48-.12.48.12.48.12.48.36.36.36.12h.24l.36-.36.12-.24M419.99 395.88v-4.32M419.99 393.6l.24-.36.24-.12.36-.12.24.12.36.24.12.48v2.04M424.31 391.56v4.32M423.71 393h1.2M427.31 395.16h1.08M428.39 393.84h-1.08M431.39 395.88v-4.32l-.6.84M430.79 395.88h1.08M433.91 395.04l.24.48.36.36h.84l.36-.36.24-.48v-.48l-.12-.48-.24-.36-.36-.12h-.36"/><path stroke-width=".48" d="M435.23 393.6l.24-.24.24-.36.12-.48-.12-.36-.24-.36-.36-.24-.48.12-.36.24M438.47 396h-.12v-.12l.12-.12.12.12v.12h-.12M440.99 395.28l.24.36.36.24h.36l.48-.12.24-.24.24-.6.12-.6-.12-.48-.24-.36-.36-.36h-.6l-.36.36.12-1.92h1.2"/><path stroke-width=".72" d="M410.51 459.12l.36-.6.48-.36.48-.12.72.24.36.48.24.6-.12.72-.24.48-1.32 1.08-.6.72-.36 1.08-.12.84h2.76M416.87 464.52l-.24-.12v-.24h.36v.24l-.12.12M421.79 464.28l.12-1.32.24-1.2.24-.96.24-1.2.6-1.56h-2.64M425.51 463.44l.48.48.36.24.6.12.6-.12.48-.48.36-.72v-.84l-.12-.84-.36-.48-.36-.48-.48-.12-.48.12-.6.48.24-2.76h1.68"/><path stroke-width=".48" d="M405.11 319.2h1.8l-1.8 4.32h1.8M408.95 322.08h1.2M412.07 323.52v-4.32M413.99 319.2v4.32M413.99 321.36h-1.92M415.91 321.6h1.44l-.12-.6-.24-.24-.24-.12h-.36l-.24.24-.24.48-.12.48v.48l.12.36.24.48.24.24.36.12.36-.12.24-.48M420.11 320.64v2.88M420.11 319.44l-.12-.12v-.12h.24v.12l-.12.12M422.99 324.6l.36.24.36.12.36-.12.24-.36.12-.48v-3.36"/><path stroke-width=".48" d="M424.43 321.24l-.12-.36-.24-.24h-.36l-.36.12-.24.24-.12.6-.12.48v.36l.24.6.24.36.36.12.24-.12.36-.24.12-.36M426.47 323.52v-4.32M426.47 321.24l.24-.36.12-.24h.72l.24.36.12.36v2.16M430.67 319.2v4.32M430.07 320.64h1.32M433.67 322.68h1.2M434.87 321.36h-1.2M437.75 323.52v-4.32l-.48.84M437.27 323.52h1.08M440.51 321.72l.24-.48.24-.36.36-.12.36.12.24.36.24.36v.96l-.24.48-.24.36-.36.12-.36-.12-.36-.48-.12-.6v-1.68l.12-.48.24-.6.36-.36h.36l.24.12.24.36M444.83 323.64l-.12-.12v-.12h.24v.12l-.12.12M448.43 319.2l-.36.12-.36.36-.12.48-.12.48-.12.72.12.6.12.6.12.48.36.36.36.12.36-.12.24-.36.12-.48.12-.6.12-.6-.12-.72-.12-.48-.12-.48-.24-.36-.36-.12"/><path stroke-width=".72" d="M405.71 298.08l.48-.6.48-.36h.48l.6.12.48.6.12.6v.6l-.36.48-1.2 1.08-.6.72-.48 1.08-.12.96h2.76M410.63 302.04l.36.72.6.48.6.12.48-.12.48-.48.36-.72.12-.6-.12-.72-.48-.48-.48-.24h-.6"/><path stroke-width=".72" d="M412.55 300l.36-.36.36-.48.12-.6-.12-.6-.36-.6-.6-.24h-.6l-.48.48M417.23 303.48h-.24v-.24l.24-.12.12.12v.24h-.12M420.83 302.4l.36.48.48.36.6.12.6-.24.48-.36.24-.84.12-.72-.12-.84-.36-.6-.48-.36-.48-.12-.36.12-.6.36.12-2.64h1.8"/><path stroke-width=".48" d="M405.95 261.84h1.8l-1.8 4.32h1.8M409.79 264.72h1.2M412.91 266.16v-4.32M414.83 261.84v4.32M414.83 264h-1.92M416.75 264.24h1.44l-.12-.48-.24-.24-.36-.24-.24.12-.36.24-.12.48-.12.48v.36l.12.48.24.36.24.36h.36l.24-.12.36-.36M420.95 263.28v2.88M420.95 262.2l-.12-.12v-.12l.12-.12.12.12v.12l-.12.12M423.83 267.36l.36.24.36.12.24-.12.36-.36.12-.48v-3.48"/><path stroke-width=".48" d="M425.27 263.88l-.12-.24-.36-.24-.24-.12-.36.24-.24.24-.24.48v.96l.24.48.24.36.36.12h.24l.36-.36.12-.24M427.19 266.16v-4.32M427.19 264l.24-.36.24-.24.36-.12.36.12.24.24.12.48v2.04M431.51 261.84v4.32M430.91 263.28h1.32M434.51 265.44h1.2M435.71 264.12h-1.2M438.59 266.16v-4.32l-.48.96M438.11 266.16h1.08M441.23 264.36l.36-.48.24-.24.36-.12.36.12.24.24.12.48.12.48-.12.48-.12.36-.24.36-.36.12-.36-.12-.36-.36-.12-.72-.12-.72.12-.96.12-.48.24-.48.36-.36.24-.12.36.12.24.48M445.67 266.4l-.12-.12v-.12l.12-.12.12.12v.12l-.12.12M449.15 261.84l-.36.12-.24.48-.12.36-.24.6v1.32l.24.6.12.36.24.36.36.12.36-.12.36-.36.12-.36.12-.6.12-.72-.12-.6-.12-.6-.12-.36-.36-.48-.36-.12"/><path stroke-width=".72" d="M417.35 437.04l.36-.72.48-.36.48-.24.48.24.24.36.36.72v1.32l-.36.6-.36.48-.48.24-.48-.24-.48-.6-.24-.96v-.96l.12-1.44.12-.72.36-.72.48-.48.48-.12.36.24.36.48"/><path d="M425.75 326.64h102.6M429.23 300.24h23.28M425.75 270h126.24M437.51 417.72h90.84M437.51 417.72h141.24M433.67 417.72h72.48M436.79 417.72h115.2M432.83 385.56h73.32M439.91 298.2v3.96M439.91 302.16l12.6-1.92M452.51 300.24l-12.6-2.04M439.91 185.76v3.96M452.51 187.68l-12.6-1.92M439.91 189.72l12.6-2.04M452.51 301.2v6.84M452.39 241.92l33-36M452.51 233.88v-54M460.31 417.72h162.96M460.31 241.68h162.96" stroke-width=".12"/><path stroke-width=".72" d="M488.15 439.92v-6.36l-.84 1.32M487.31 439.92h1.56M493.19 433.56l-.48.24-.36.48-.24.72-.24.84-.12.84.12.96.24.84.24.6.36.6.48.24.6-.24.36-.6.24-.6.24-.84v-1.8l-.24-.84-.24-.72-.36-.48-.6-.24M498.35 440.04l-.12-.12v-.12l.12-.12.12.12v.12l-.12.12M502.19 434.64l.36-.6.48-.36.48-.12.72.24.36.48.12.72v.6l-.24.48-1.32 1.08-.6.72-.36 1.08-.12.96h2.64M506.99 438.96l.48.48.48.36.48.12.6-.24.48-.48.36-.72v-.84l-.12-.84-.24-.48-.48-.48h-.96l-.6.48.24-2.76h1.8"/><path stroke-width=".84" d="M490.07 193.92l-.48-.36-.6-.24h-.6l-.72.36-.48.72-.36.72-.36 1.2-.12 1.2.24 1.08.24.72.36.72.6.6.6.24h.48l.6-.24.48-.36.36-.6M494.39 200.88l-.6-.12-.48-.48-.48-.84-.36-.84-.12-.96v-1.08l.12-.96.36-.84.48-.84.48-.48.6-.12.72.12.48.48.48.84.36.84.12.96v1.08l-.12.96-.36.84-.48.84-.48.48-.72.12M498.95 200.88v-7.56h2.04l.6.36.36.48.12 1.08-.12.96-.48.6-.48.48h-2.04M500.99 197.28l1.08 3.6M504.83 200.88v-7.56l3.6 7.56v-7.56M514.31 200.88h-3.12v-7.56h3.12M513.11 196.92h-1.92M517.31 200.88v-7.56h1.92l.6.36.48.48.12 1.08-.12.96-.48.6-.6.48h-1.92M519.23 197.28l1.2 3.6M529.43 200.88v-7.56h2.04l.6.36.36.48.12 1.08-.12.96-.48.6-.48.48h-2.04M531.47 197.28l1.08 3.6M535.19 200.88l1.92-7.56 2.04 7.56M538.43 198.24h-2.52M541.55 200.88v-7.56h1.56l.6.36.48.48.36.84.36.84v2.52l-.36.84-.36.72-.48.6-.6.36h-1.56M548.39 193.32h1.92M549.35 193.32v7.56M548.39 200.88h1.92M553.67 193.32v5.4l.36 1.08.6.84.84.24.72-.24.72-.84.24-1.08v-5.4M559.91 199.8l.6.72.72.36h.6l.6-.36.48-.72.24-.84-.12-.84-.36-.72-.72-.6-.96-.24-.48-.48-.24-.84.12-.84.36-.72.6-.36h.48l.6.24.48.6M572.75 199.44h2.04M574.79 197.28h-2.04M584.27 199.32l.48.96.6.48.72.12.6-.12.6-.72.36-.72.12-.72-.12-.84-.6-.72-.48-.24h-.72"/><path stroke-width=".84" d="M586.55 196.8l.36-.36.48-.6.12-.72-.12-.72-.48-.72-.6-.36-.72.12-.72.48M592.07 201.12l-.12-.12v-.24l.12-.12.12.12v.24l-.12.12M598.19 193.32l-.72.24-.36.6-.36.84-.24.96-.12 1.08.12 1.2.24.96.36.72.36.72.72.24.6-.24.48-.72.24-.72.24-.96.12-1.2-.12-1.08-.24-.96-.24-.84-.48-.6-.6-.24M601.91 200.88v-5.04M601.91 197.28l.24-.72.36-.48.6-.24.48.24.48.48.24.72v3.6"/><path stroke-width=".84" d="M604.31 197.28l.12-.72.48-.48.48-.24.6.24.36.48.24.84v3.48M608.03 200.88v-5.04M608.03 197.28l.24-.72.36-.48.6-.24.48.24.36.48.24.72v3.6"/><path stroke-width=".84" d="M610.31 197.28l.24-.72.48-.48.48-.24.6.24.36.48.24.84v3.48"/><path d="M498.35 428.52v-10.8M498.35 417.72v-32.16M498.35 417.72l1.92-12.6M496.31 405.12l2.04 12.6M496.31 398.04h3.96M498.35 385.56l-2.04 12.48M500.27 398.04l-1.92-12.48M500.27 405.12h-3.96M520.43 417.72l2.04-12.6M518.51 405.12l1.92 12.6M520.43 376.92v40.8M522.47 405.12h-3.96" stroke-width=".12"/><path stroke-width=".72" d="M516.71 366.72l.36-.6.48-.36.48-.12.72.24.48.48.12.6-.12.72-.24.48-1.32 1.08-.6.72-.36.96-.12.96h2.76M521.87 371.16l.48.48.48.24.6-.24.48-.6.24-.96.12-.84v-1.2l-.12-.96-.24-.84-.48-.36-.36-.24-.6.24-.36.36-.24.6-.12.84.12.84.24.72.48.36.48.12.48-.24.36-.48.36-.96"/><path d="M520.43 360.6v-33.96M518.51 339.12h3.96M520.43 326.64l-1.92 12.48M522.47 339.12l-2.04-12.48" stroke-width=".12"/><path stroke-width=".72" d="M542.39 340.2v-6.24l-2.4 4.44h3.24M546.59 340.2l.12-1.32.24-1.2.24-.96.36-1.2.48-1.56h-2.64"/><path d="M544.19 417.72l1.92-12.6M542.27 405.12l1.92 12.6M544.19 345.24v72.48M546.11 405.12h-3.84M544.19 328.92V270M542.27 282.6h3.84M544.19 270l-1.92 12.6M546.11 282.6l-1.92-12.6" stroke-width=".12"/><path stroke-width=".72" d="M563.27 438.36v-6.24l-.72 1.2M562.55 438.36h1.56M568.43 438.36v-6.24l-.84 1.2M567.59 438.36h1.56M573.47 438.6l-.12-.12v-.24l.12-.12.12.12v.24l-.12.12M577.19 437.4l.36.6.48.24.6.12.48-.24.48-.36.36-.72v-.84l-.12-.84-.24-.48-.48-.48-.48-.12-.48.12-.6.48.24-2.76h1.8"/><path d="M569.03 405.12l1.92 12.6M572.87 405.12h-3.84M569.03 394.2h3.84M570.95 381.6l-1.92 12.6M570.95 417.72V381.6M570.95 417.72l1.92-12.6M570.95 427.08v-9.36M572.87 394.2l-1.92-12.6M615.47 417.72l1.92-12.6M613.43 405.12l2.04 12.6M615.47 332.16v85.56M617.39 405.12h-3.96" stroke-width=".12"/><path stroke-width=".72" d="M611.51 326.16l.36.48.48.36.6.12.48-.24.48-.36.36-.84v-.84l-.12-.72-.24-.6-.48-.36-.48-.12-.48.12-.6.36.24-2.64h1.8M616.79 324.48l.36-.72.48-.48.48-.12.48.12.24.48.36.6v1.32l-.36.72-.36.48-.48.24-.48-.24-.48-.6-.24-.96v-1.08l.12-1.32.12-.72.36-.72.48-.6h.48l.36.12.36.6"/><path d="M615.47 315.72v-74.04M613.43 254.28h3.96M615.47 241.68l-2.04 12.6M617.39 254.28l-1.92-12.6" stroke-width=".12"/></g></svg>